<svg xmlns="http://www.w3.org/2000/svg" xmlns:xlink="http://www.w3.org/1999/xlink" viewBox="0 0 116.17 109.89"><defs><style>.cls-1{fill:none;}.cls-2{fill:#1ae5be;}.cls-3{clip-path:url(#clip-path);}.cls-4{fill:#fff;}</style><clipPath id="clip-path" transform="translate(0 0)"><rect class="cls-1" width="116.17" height="110"/></clipPath></defs><g id="Layer_2" data-name="Layer 2"><g id="Layer_1-2" data-name="Layer 1"><path class="cls-2" d="M45.74,109.89A11.08,11.08,0,1,1,56.82,98.81a11.08,11.08,0,0,1-11.08,11.08Zm0-18.23a7.15,7.15,0,1,0,7.15,7.15,7.14,7.14,0,0,0-7.15-7.15Z" transform="translate(0 0)"/><g class="cls-3"><path class="cls-2" d="M86.76,109.89A11.08,11.08,0,1,1,97.83,98.81a11.08,11.08,0,0,1-11.07,11.08Zm0-18.23a7.15,7.15,0,1,0,7.14,7.15,7.15,7.15,0,0,0-7.14-7.15Z" transform="translate(0 0)"/><path class="cls-4" d="M2,3.93H14a8,8,0,0,1,7.9,6.75L31.34,70.6A11.85,11.85,0,0,0,43.12,80.66h58.63a2,2,0,0,0,0-3.93H43.12A8,8,0,0,1,35.22,70L33.6,59.79H93.65a11.93,11.93,0,0,0,11.27-8l11.14-32.15a2,2,0,0,0-.25-1.79,2,2,0,0,0-1.6-.82H26.83l-1.1-6.94A11.88,11.88,0,0,0,14,0H2A2,2,0,0,0,2,3.93Zm109.49,17L101.21,50.48a8,8,0,0,1-7.56,5.39H33L27.45,20.94Z" transform="translate(0 0)"/></g></g></g></svg>