<svg xmlns="http://www.w3.org/2000/svg" xmlns:xlink="http://www.w3.org/1999/xlink" viewBox="0 0 80 76.25"><defs><style>.cls-1{fill:none;}.cls-2{fill:#d4e1f4;}.cls-3{fill:#1ae5be;}.cls-4{clip-path:url(#clip-path);}.cls-5{fill:#0635c9;}</style><clipPath id="clip-path" transform="translate(0 0)"><rect class="cls-1" width="80" height="76.41"/></clipPath></defs><g id="Layer_2" data-name="Layer 2"><g id="Layer_1-2" data-name="Layer 1"><path class="cls-2" d="M65.52,55.16a1.72,1.72,0,0,0-1,.7l-3.81,5.83,8.52-2.3L69,54.22Z" transform="translate(0 0)"/><path class="cls-2" d="M47.78,61.31a1.63,1.63,0,0,0-1.19,0L36,65.34l-6.19-9.48a1.72,1.72,0,0,0-1-.7l-10.93-3,.57-11.31a1.66,1.66,0,0,0-.37-1.13L11,30.94l7.1-8.82A1.66,1.66,0,0,0,18.49,21l-.31-6.14-7.44,2,.56,11.31a1.68,1.68,0,0,1-.37,1.14l-7.1,8.82,7.1,8.81a1.68,1.68,0,0,1,.37,1.14l-.56,11.31,10.93,3a1.67,1.67,0,0,1,1,.71l6.19,9.48,10.58-4a1.77,1.77,0,0,1,1.2,0l10.58,4,5.19-8Z" transform="translate(0 0)"/><path class="cls-3" d="M30.73,34.75a6.95,6.95,0,1,1,6.94-6.95,6.95,6.95,0,0,1-6.94,7Zm0-10.54a3.59,3.59,0,1,0,3.59,3.59,3.59,3.59,0,0,0-3.59-3.59Z" transform="translate(0 0)"/><g class="cls-4"><path class="cls-3" d="M48.85,55.81a6.94,6.94,0,1,1,6.94-6.94,6.95,6.95,0,0,1-6.94,6.94Zm0-10.53a3.59,3.59,0,1,0,3.59,3.59,3.59,3.59,0,0,0-3.59-3.59Z" transform="translate(0 0)"/><path class="cls-5" d="M7.92,48.55l-.6,12a1.68,1.68,0,0,0,1.24,1.7l11.61,3.14,6.58,10.08a1.69,1.69,0,0,0,2,.65L40,71.86l11.25,4.28a1.68,1.68,0,0,0,2-.65l6.58-10.08,11.61-3.14a1.68,1.68,0,0,0,1.24-1.7l-.6-12,7.55-9.37a1.7,1.7,0,0,0,0-2.11L72.08,27.7l.6-12A1.69,1.69,0,0,0,71.44,14L59.83,10.84,53.25.76a1.69,1.69,0,0,0-2-.65L40,4.4,28.75.11a1.68,1.68,0,0,0-2,.65L20.17,10.84,8.56,14a1.68,1.68,0,0,0-1.24,1.7l.6,12L.37,37.07a1.7,1.7,0,0,0,0,2.11Zm3-19.24a1.68,1.68,0,0,0,.37-1.14l-.56-11.31,10.93-2.95a1.7,1.7,0,0,0,1-.7l6.19-9.48,10.58,4a1.77,1.77,0,0,0,1.2,0l10.58-4,6.19,9.48a1.7,1.7,0,0,0,1,.7l10.93,2.95L68.7,28.17a1.68,1.68,0,0,0,.37,1.14l7.1,8.82-7.1,8.81a1.68,1.68,0,0,0-.37,1.14l.56,11.31-10.93,3a1.67,1.67,0,0,0-1,.71l-6.19,9.48-10.58-4a1.77,1.77,0,0,0-1.2,0l-10.58,4-6.19-9.48a1.67,1.67,0,0,0-1-.71l-10.93-3,.56-11.31a1.68,1.68,0,0,0-.37-1.14l-7.1-8.81Z" transform="translate(0 0)"/></g><path class="cls-5" d="M27.23,57.7a1.67,1.67,0,0,0,2.32-.49L53.26,20.87a1.71,1.71,0,0,0,.09-1.68,1.68,1.68,0,0,0-1.41-.91,1.65,1.65,0,0,0-1.49.76L26.74,55.38a1.69,1.69,0,0,0,.49,2.32Z" transform="translate(0 0)"/></g></g></svg>