<svg xmlns="http://www.w3.org/2000/svg" viewBox="0 0 87.58 110"><defs><style>.cls-1{fill:#d4e1f4;}.cls-2{fill:#1ae5be;}.cls-3{fill:#0635c9;}</style></defs><g id="Layer_2" data-name="Layer 2"><g id="Layer_1-2" data-name="Layer 1"><path class="cls-1" d="M54.68,49.13A27.2,27.2,0,0,1,37.55.8,27.21,27.21,0,1,0,61.24,48.33a26.36,26.36,0,0,1-6.56.8Z"/><path class="cls-1" d="M70.53,106.3l-.32-1.58H12.42a1.85,1.85,0,0,1-1.85-1.85,46.46,46.46,0,0,1,12.9-32.79,44.22,44.22,0,0,1,6.47-5.43,42.9,42.9,0,0,0-17,10.72A46.4,46.4,0,0,0,0,108.15,1.85,1.85,0,0,0,1.85,110H70.53a1.85,1.85,0,0,0,0-3.7Z"/><path class="cls-2" d="M16.91,27.21A27.21,27.21,0,1,0,44.12,0,27.21,27.21,0,0,0,16.91,27.21Zm50.72,0A23.51,23.51,0,1,1,44.12,3.7,23.52,23.52,0,0,1,67.63,27.21Z"/><path class="cls-3" d="M70.53,106.3H3.73A42.5,42.5,0,0,1,15.55,78,39.62,39.62,0,0,1,44.12,66a40.35,40.35,0,0,1,19.09,4.77A1.85,1.85,0,0,0,66,69.13a1.87,1.87,0,0,0-1-1.57,44,44,0,0,0-20.85-5.22,43.27,43.27,0,0,0-31.21,13A46.4,46.4,0,0,0,0,108.15,1.85,1.85,0,0,0,1.85,110H70.53a1.85,1.85,0,0,0,0-3.7Z"/><path class="cls-3" d="M17.05,106.3a1.85,1.85,0,0,0,0,3.7H85.74a1.84,1.84,0,0,0,1.84-1.85,46.44,46.44,0,0,0-12.9-32.78,43.28,43.28,0,0,0-31.21-13,44,44,0,0,0-20.85,5.22,1.83,1.83,0,0,0-1,1.57,1.84,1.84,0,0,0,2.73,1.68A40.42,40.42,0,0,1,43.47,66,39.6,39.6,0,0,1,72,78,42.5,42.5,0,0,1,83.85,106.3Z"/></g></g></svg>