<svg xmlns="http://www.w3.org/2000/svg" viewBox="0 0 101.59 110"><defs><style>.cls-1{fill:#d4e1f4;}.cls-2{fill:#1ae5be;}.cls-3{fill:#0635c9;}</style></defs><g id="Layer_2" data-name="Layer 2"><g id="Layer_1-2" data-name="Layer 1"><path class="cls-1" d="M18.15,64.17A38.49,38.49,0,0,1,49.75,2.55,38.5,38.5,0,1,0,39,78.23,38.37,38.37,0,0,1,18.15,64.17Z"/><path class="cls-2" d="M100.73,105,74,78.22a2.94,2.94,0,0,0-4.16,4.16l26.76,26.76a2.94,2.94,0,1,0,4.16-4.16Z"/><path class="cls-3" d="M40.15,80.29A40.15,40.15,0,1,1,80.29,40.15,40.19,40.19,0,0,1,40.15,80.29Zm0-77.68A37.54,37.54,0,1,0,77.68,40.15,37.58,37.58,0,0,0,40.15,2.61Z"/></g></g></svg>